<mxfile host="app.diagrams.net" modified="2021-05-27T20:36:39.262Z" agent="5.0 (Windows NT 10.0; Win64; x64) AppleWebKit/537.36 (KHTML, like Gecko) Chrome/89.0.4389.128 Safari/537.36 OPR/75.0.3969.279" etag="8Y6gVSEkmHPELrm6lgnz" version="14.7.1" type="github">
  <diagram id="wK1NJLroiv-2ser9sW-l" name="Page-1">
    <mxGraphModel dx="997" dy="580" grid="1" gridSize="10" guides="1" tooltips="1" connect="1" arrows="1" fold="1" page="1" pageScale="1" pageWidth="827" pageHeight="1169" math="0" shadow="0">
      <root>
        <mxCell id="0" />
        <mxCell id="1" parent="0" />
        <mxCell id="tDXbiLjTbDgPIIlDf_-2-12" value="" style="strokeWidth=1;shadow=0;dashed=0;align=center;html=1;shape=mxgraph.mockup.containers.browserWindow;rSize=0;strokeColor=#666666;strokeColor2=#008cff;strokeColor3=#c4c4c4;mainText=,;recursiveResize=0;" parent="1" vertex="1">
          <mxGeometry x="50" y="730" width="800" height="1490" as="geometry" />
        </mxCell>
        <mxCell id="tDXbiLjTbDgPIIlDf_-2-13" value="Page 1" style="strokeWidth=1;shadow=0;dashed=0;align=center;html=1;shape=mxgraph.mockup.containers.anchor;fontSize=17;fontColor=#666666;align=left;" parent="tDXbiLjTbDgPIIlDf_-2-12" vertex="1">
          <mxGeometry x="60" y="12" width="110" height="26" as="geometry" />
        </mxCell>
        <mxCell id="tDXbiLjTbDgPIIlDf_-2-14" value="https://www.draw.io" style="strokeWidth=1;shadow=0;dashed=0;align=center;html=1;shape=mxgraph.mockup.containers.anchor;rSize=0;fontSize=17;fontColor=#666666;align=left;" parent="tDXbiLjTbDgPIIlDf_-2-12" vertex="1">
          <mxGeometry x="130" y="60" width="250" height="26" as="geometry" />
        </mxCell>
        <mxCell id="tDXbiLjTbDgPIIlDf_-2-15" value="First slide" style="html=1;shadow=0;dashed=0;strokeColor=none;strokeWidth=1;fillColor=#777777;fontColor=#555555;whiteSpace=wrap;align=center;verticalAlign=middle;fontStyle=0;fontSize=40;" parent="tDXbiLjTbDgPIIlDf_-2-12" vertex="1">
          <mxGeometry y="185" width="800" height="300" as="geometry" />
        </mxCell>
        <mxCell id="tDXbiLjTbDgPIIlDf_-2-16" value="" style="html=1;verticalLabelPosition=bottom;labelBackgroundColor=#ffffff;verticalAlign=top;shadow=0;dashed=0;strokeWidth=4;shape=mxgraph.ios7.misc.more;strokeColor=#a0a0a0;" parent="tDXbiLjTbDgPIIlDf_-2-15" vertex="1">
          <mxGeometry x="1" y="0.5" width="7" height="14" relative="1" as="geometry">
            <mxPoint x="-50" y="-7" as="offset" />
          </mxGeometry>
        </mxCell>
        <mxCell id="tDXbiLjTbDgPIIlDf_-2-17" value="" style="flipH=1;html=1;verticalLabelPosition=bottom;labelBackgroundColor=#ffffff;verticalAlign=top;shadow=0;dashed=0;strokeWidth=4;shape=mxgraph.ios7.misc.more;strokeColor=#a0a0a0;" parent="tDXbiLjTbDgPIIlDf_-2-15" vertex="1">
          <mxGeometry y="0.5" width="7" height="14" relative="1" as="geometry">
            <mxPoint x="43" y="-7" as="offset" />
          </mxGeometry>
        </mxCell>
        <mxCell id="tDXbiLjTbDgPIIlDf_-2-18" value="" style="html=1;shadow=0;strokeColor=none;fillColor=#ffffff;" parent="tDXbiLjTbDgPIIlDf_-2-15" vertex="1">
          <mxGeometry x="0.5" y="1" width="30" height="4" relative="1" as="geometry">
            <mxPoint x="-50" y="-20" as="offset" />
          </mxGeometry>
        </mxCell>
        <mxCell id="tDXbiLjTbDgPIIlDf_-2-19" value="" style="html=1;shadow=0;strokeColor=none;fillColor=#BBBBBB;" parent="tDXbiLjTbDgPIIlDf_-2-15" vertex="1">
          <mxGeometry x="0.5" y="1" width="30" height="4" relative="1" as="geometry">
            <mxPoint x="-15" y="-20" as="offset" />
          </mxGeometry>
        </mxCell>
        <mxCell id="tDXbiLjTbDgPIIlDf_-2-20" value="" style="html=1;shadow=0;strokeColor=none;fillColor=#BBBBBB;" parent="tDXbiLjTbDgPIIlDf_-2-15" vertex="1">
          <mxGeometry x="0.5" y="1" width="30" height="4" relative="1" as="geometry">
            <mxPoint x="20" y="-20" as="offset" />
          </mxGeometry>
        </mxCell>
        <mxCell id="tDXbiLjTbDgPIIlDf_-2-21" value="&amp;nbsp;Início&amp;nbsp; &amp;nbsp; &amp;nbsp;Quem somos nós&amp;nbsp; &amp;nbsp; &amp;nbsp;Galeria&amp;nbsp; &amp;nbsp; &amp;nbsp;Contato&amp;nbsp; &amp;nbsp; &amp;nbsp;Autoras&amp;nbsp;" style="html=1;shadow=0;dashed=0;fillColor=#fff2cc;strokeColor=#d6b656;fontSize=16;align=left;spacing=15;" parent="tDXbiLjTbDgPIIlDf_-2-12" vertex="1">
          <mxGeometry y="110" width="800" height="80" as="geometry" />
        </mxCell>
        <mxCell id="tDXbiLjTbDgPIIlDf_-2-38" value="&lt;span style=&quot;font-size: 20px&quot;&gt;&lt;b&gt;Campo florido&lt;/b&gt;&lt;/span&gt;&lt;br style=&quot;font-size: 14px&quot;&gt;&lt;br style=&quot;font-size: 14px&quot;&gt;Esta arte possui lindas flores&amp;nbsp;&lt;br&gt;com uma boa energia para seu plano de fundo.&lt;br&gt;Autora: Nandah" style="html=1;shadow=0;dashed=0;shape=mxgraph.bootstrap.rrect;rSize=5;strokeColor=#DFDFDF;html=1;whiteSpace=wrap;fillColor=#ffffff;fontColor=#000000;verticalAlign=bottom;align=left;spacing=20;spacingBottom=50;fontSize=14;" parent="tDXbiLjTbDgPIIlDf_-2-12" vertex="1">
          <mxGeometry y="540" width="250" height="360" as="geometry" />
        </mxCell>
        <mxCell id="tDXbiLjTbDgPIIlDf_-2-39" value="Image cap" style="html=1;shadow=0;dashed=0;shape=mxgraph.bootstrap.topButton;rSize=5;perimeter=none;whiteSpace=wrap;fillColor=#868E96;strokeColor=#DFDFDF;fontColor=#DEE2E6;resizeWidth=1;fontSize=18;" parent="tDXbiLjTbDgPIIlDf_-2-38" vertex="1">
          <mxGeometry width="250" height="180" relative="1" as="geometry" />
        </mxCell>
        <mxCell id="tDXbiLjTbDgPIIlDf_-2-40" value="Ir para o perfil" style="html=1;shadow=0;dashed=0;shape=mxgraph.bootstrap.rrect;rSize=5;perimeter=none;whiteSpace=wrap;fillColor=#0085FC;strokeColor=none;fontColor=#ffffff;resizeWidth=1;fontSize=14;" parent="tDXbiLjTbDgPIIlDf_-2-38" vertex="1">
          <mxGeometry y="1" width="120" height="40" relative="1" as="geometry">
            <mxPoint x="20" y="-60" as="offset" />
          </mxGeometry>
        </mxCell>
        <mxCell id="tDXbiLjTbDgPIIlDf_-2-54" value="&lt;span style=&quot;font-size: 20px&quot;&gt;&lt;b&gt;Lua cheia&lt;/b&gt;&lt;/span&gt;&lt;br style=&quot;font-size: 14px&quot;&gt;&lt;br style=&quot;font-size: 14px&quot;&gt;Descrição da autora: Amei quando fiz as sombras!&lt;br&gt;&lt;br&gt;Autora: Lua" style="html=1;shadow=0;dashed=0;shape=mxgraph.bootstrap.rrect;rSize=5;strokeColor=#DFDFDF;html=1;whiteSpace=wrap;fillColor=#ffffff;fontColor=#000000;verticalAlign=bottom;align=left;spacing=20;spacingBottom=50;fontSize=14;" parent="tDXbiLjTbDgPIIlDf_-2-12" vertex="1">
          <mxGeometry x="275" y="540" width="250" height="360" as="geometry" />
        </mxCell>
        <mxCell id="tDXbiLjTbDgPIIlDf_-2-55" value="Image cap" style="html=1;shadow=0;dashed=0;shape=mxgraph.bootstrap.topButton;rSize=5;perimeter=none;whiteSpace=wrap;fillColor=#868E96;strokeColor=#DFDFDF;fontColor=#DEE2E6;resizeWidth=1;fontSize=18;" parent="tDXbiLjTbDgPIIlDf_-2-54" vertex="1">
          <mxGeometry width="250" height="180" relative="1" as="geometry" />
        </mxCell>
        <mxCell id="tDXbiLjTbDgPIIlDf_-2-56" value="Ir para o perfil" style="html=1;shadow=0;dashed=0;shape=mxgraph.bootstrap.rrect;rSize=5;perimeter=none;whiteSpace=wrap;fillColor=#0085FC;strokeColor=none;fontColor=#ffffff;resizeWidth=1;fontSize=14;" parent="tDXbiLjTbDgPIIlDf_-2-54" vertex="1">
          <mxGeometry y="1" width="120" height="40" relative="1" as="geometry">
            <mxPoint x="20" y="-60" as="offset" />
          </mxGeometry>
        </mxCell>
        <mxCell id="tDXbiLjTbDgPIIlDf_-2-57" value="&lt;span style=&quot;font-size: 20px&quot;&gt;&lt;b&gt;Campo florido&lt;/b&gt;&lt;/span&gt;&lt;br style=&quot;font-size: 14px&quot;&gt;&lt;br style=&quot;font-size: 14px&quot;&gt;Esta arte possui lindas flores&amp;nbsp;&lt;br&gt;com uma boa energia para seu plano de fundo.&lt;br&gt;Autora: Nandah" style="html=1;shadow=0;dashed=0;shape=mxgraph.bootstrap.rrect;rSize=5;strokeColor=#DFDFDF;html=1;whiteSpace=wrap;fillColor=#ffffff;fontColor=#000000;verticalAlign=bottom;align=left;spacing=20;spacingBottom=50;fontSize=14;" parent="tDXbiLjTbDgPIIlDf_-2-12" vertex="1">
          <mxGeometry x="550" y="540" width="250" height="360" as="geometry" />
        </mxCell>
        <mxCell id="tDXbiLjTbDgPIIlDf_-2-58" value="Image cap" style="html=1;shadow=0;dashed=0;shape=mxgraph.bootstrap.topButton;rSize=5;perimeter=none;whiteSpace=wrap;fillColor=#868E96;strokeColor=#DFDFDF;fontColor=#DEE2E6;resizeWidth=1;fontSize=18;" parent="tDXbiLjTbDgPIIlDf_-2-57" vertex="1">
          <mxGeometry width="250" height="180" relative="1" as="geometry" />
        </mxCell>
        <mxCell id="tDXbiLjTbDgPIIlDf_-2-59" value="Ir para o perfil" style="html=1;shadow=0;dashed=0;shape=mxgraph.bootstrap.rrect;rSize=5;perimeter=none;whiteSpace=wrap;fillColor=#0085FC;strokeColor=none;fontColor=#ffffff;resizeWidth=1;fontSize=14;" parent="tDXbiLjTbDgPIIlDf_-2-57" vertex="1">
          <mxGeometry y="1" width="120" height="40" relative="1" as="geometry">
            <mxPoint x="20" y="-60" as="offset" />
          </mxGeometry>
        </mxCell>
        <mxCell id="tDXbiLjTbDgPIIlDf_-2-60" value="" style="rounded=0;whiteSpace=wrap;html=1;fillColor=#f8cecc;strokeColor=#b85450;" parent="1" vertex="1">
          <mxGeometry x="50" y="1730" width="800" height="260" as="geometry" />
        </mxCell>
        <mxCell id="tDXbiLjTbDgPIIlDf_-2-62" value="" style="rounded=0;whiteSpace=wrap;html=1;" parent="1" vertex="1">
          <mxGeometry x="60" y="1750" width="780" height="90" as="geometry" />
        </mxCell>
        <mxCell id="tDXbiLjTbDgPIIlDf_-2-63" value="&lt;span style=&quot;font-size: 25px&quot;&gt;Recomendação de autores!&lt;br&gt;&lt;/span&gt;" style="text;html=1;strokeColor=none;fillColor=none;align=center;verticalAlign=middle;whiteSpace=wrap;rounded=0;" parent="1" vertex="1">
          <mxGeometry x="60" y="1765" width="780" height="60" as="geometry" />
        </mxCell>
        <mxCell id="2cCJGgApycYE-1iXP-OD-3" value="&lt;span style=&quot;font-size: 20px&quot;&gt;Usamos estes Apps: Photoshop, canvas, coisas de arte&lt;br&gt;Para desenhos físicos: Lápis 6b, pincel, corante&lt;br&gt;&lt;/span&gt;" style="rounded=1;whiteSpace=wrap;html=1;" vertex="1" parent="1">
          <mxGeometry x="60" y="1880" width="780" height="60" as="geometry" />
        </mxCell>
      </root>
    </mxGraphModel>
  </diagram>
</mxfile>
